<mxfile host="app.diagrams.net" modified="2022-07-09T13:55:42.965Z" agent="5.0 (Macintosh; Intel Mac OS X 10_15_7) AppleWebKit/537.36 (KHTML, like Gecko) Chrome/103.0.0.0 Safari/537.36" etag="nWpVHK5qVDZkcAaloO7H" version="20.0.1" type="github">
  <diagram name="Page-1" id="90a13364-a465-7bf4-72fc-28e22215d7a0">
    <mxGraphModel dx="1018" dy="602" grid="1" gridSize="13" guides="1" tooltips="1" connect="1" arrows="1" fold="1" page="1" pageScale="1.5" pageWidth="1169" pageHeight="826" background="none" math="0" shadow="0">
      <root>
        <mxCell id="0" style=";html=1;" />
        <mxCell id="1" style=";html=1;" parent="0" />
        <mxCell id="-iZUTilEa2WBl7ZFIHIT-264" value="" style="rounded=1;whiteSpace=wrap;html=1;comic=0;pointerEvents=1;strokeWidth=6;strokeColor=#787878;" parent="1" vertex="1">
          <mxGeometry x="185" y="1209" width="1141" height="585" as="geometry" />
        </mxCell>
        <mxCell id="-iZUTilEa2WBl7ZFIHIT-80" value="" style="rounded=1;whiteSpace=wrap;html=1;strokeWidth=6;strokeColor=#757575;" parent="1" vertex="1">
          <mxGeometry x="287.75" y="585" width="884" height="554.25" as="geometry" />
        </mxCell>
        <mxCell id="-iZUTilEa2WBl7ZFIHIT-30" value="" style="shape=partialRectangle;whiteSpace=wrap;html=1;bottom=1;right=1;left=1;top=0;fillColor=none;routingCenterX=-0.5;" parent="1" vertex="1">
          <mxGeometry x="458.75" y="944" width="120" height="27" as="geometry" />
        </mxCell>
        <mxCell id="-iZUTilEa2WBl7ZFIHIT-35" value="&lt;font&gt;&lt;font style=&quot;font-size: 28px&quot;&gt;Tok&lt;/font&gt;&lt;sub&gt;&lt;font style=&quot;font-size: 20px&quot;&gt;1&lt;/font&gt;&lt;/sub&gt;&lt;/font&gt;" style="rounded=1;whiteSpace=wrap;html=1;fillColor=#e1d5e7;strokeColor=#9673a6;" parent="1" vertex="1">
          <mxGeometry x="418.75" y="917" width="85" height="37" as="geometry" />
        </mxCell>
        <mxCell id="-iZUTilEa2WBl7ZFIHIT-37" value="&lt;font&gt;&lt;font style=&quot;font-size: 28px&quot;&gt;Tok&lt;/font&gt;&lt;sub&gt;&lt;font style=&quot;font-size: 20px&quot;&gt;M&lt;/font&gt;&lt;/sub&gt;&lt;/font&gt;" style="rounded=1;whiteSpace=wrap;html=1;fillColor=#e1d5e7;strokeColor=#9673a6;" parent="1" vertex="1">
          <mxGeometry x="536.75" y="916.5" width="78" height="37" as="geometry" />
        </mxCell>
        <mxCell id="-iZUTilEa2WBl7ZFIHIT-41" value="&lt;font style=&quot;font-size: 28px&quot;&gt;[SEP]&lt;/font&gt;" style="rounded=1;whiteSpace=wrap;html=1;fillColor=#e1d5e7;strokeColor=#9673a6;" parent="1" vertex="1">
          <mxGeometry x="621.75" y="917" width="84" height="36.5" as="geometry" />
        </mxCell>
        <mxCell id="-iZUTilEa2WBl7ZFIHIT-42" value="&lt;font style=&quot;font-size: 28px&quot;&gt;[CLS]&lt;/font&gt;" style="rounded=1;whiteSpace=wrap;html=1;fillColor=#e1d5e7;strokeColor=#9673a6;" parent="1" vertex="1">
          <mxGeometry x="327.75" y="917" width="85" height="36.5" as="geometry" />
        </mxCell>
        <mxCell id="-iZUTilEa2WBl7ZFIHIT-43" value="&lt;span style=&quot;font-size: 28px&quot;&gt;LanguageModel&lt;/span&gt;" style="shape=ext;double=1;rounded=0;whiteSpace=wrap;html=1;fillColor=#ffe6cc;strokeColor=#d79b00;" parent="1" vertex="1">
          <mxGeometry x="315.75" y="740.5" width="395.5" height="146" as="geometry" />
        </mxCell>
        <mxCell id="-iZUTilEa2WBl7ZFIHIT-44" value="&lt;font&gt;&lt;font style=&quot;font-size: 28px&quot;&gt;E&lt;/font&gt;&lt;sub&gt;&lt;font style=&quot;font-size: 20px&quot;&gt;[CLS]&lt;/font&gt;&lt;/sub&gt;&lt;/font&gt;" style="rounded=1;whiteSpace=wrap;html=1;fillColor=#f8cecc;strokeColor=#b85450;strokeWidth=1;perimeterSpacing=4;" parent="1" vertex="1">
          <mxGeometry x="335.75" y="823.5" width="71" height="37.5" as="geometry" />
        </mxCell>
        <mxCell id="-iZUTilEa2WBl7ZFIHIT-45" value="&lt;font&gt;&lt;font style=&quot;font-size: 28px&quot;&gt;E&lt;/font&gt;&lt;sub&gt;&lt;font style=&quot;font-size: 20px&quot;&gt;1&lt;/font&gt;&lt;/sub&gt;&lt;/font&gt;" style="rounded=1;whiteSpace=wrap;html=1;fillColor=#f8cecc;strokeColor=#b85450;strokeWidth=1;perimeterSpacing=4;" parent="1" vertex="1">
          <mxGeometry x="419.25" y="827.25" width="78.5" height="37.5" as="geometry" />
        </mxCell>
        <mxCell id="-iZUTilEa2WBl7ZFIHIT-47" value="&lt;font&gt;&lt;font style=&quot;font-size: 28px&quot;&gt;E&lt;/font&gt;&lt;sub&gt;&lt;font style=&quot;font-size: 20px&quot;&gt;[SEP]&lt;/font&gt;&lt;/sub&gt;&lt;/font&gt;" style="rounded=1;whiteSpace=wrap;html=1;fillColor=#f8cecc;strokeColor=#b85450;strokeWidth=1;perimeterSpacing=4;" parent="1" vertex="1">
          <mxGeometry x="620.75" y="826" width="74" height="37.5" as="geometry" />
        </mxCell>
        <mxCell id="-iZUTilEa2WBl7ZFIHIT-50" value="&lt;font&gt;&lt;font style=&quot;font-size: 28px&quot;&gt;E&lt;/font&gt;&lt;sub&gt;&lt;font style=&quot;font-size: 20px&quot;&gt;M&lt;/font&gt;&lt;/sub&gt;&lt;/font&gt;" style="rounded=1;whiteSpace=wrap;html=1;fillColor=#f8cecc;strokeColor=#b85450;strokeWidth=1;perimeterSpacing=4;" parent="1" vertex="1">
          <mxGeometry x="538.25" y="828.5" width="75" height="37.5" as="geometry" />
        </mxCell>
        <mxCell id="-iZUTilEa2WBl7ZFIHIT-54" value="&lt;font style=&quot;font-size: 28px&quot;&gt;&lt;font style=&quot;font-size: 28px&quot;&gt;T&lt;/font&gt;&lt;sub&gt;1&lt;/sub&gt;&lt;/font&gt;" style="rounded=1;whiteSpace=wrap;html=1;fillColor=#dae8fc;strokeColor=#6c8ebf;" parent="1" vertex="1">
          <mxGeometry x="419.25" y="751" width="78.5" height="33.5" as="geometry" />
        </mxCell>
        <mxCell id="-iZUTilEa2WBl7ZFIHIT-55" value="&lt;font&gt;&lt;font style=&quot;font-size: 28px&quot;&gt;T&lt;/font&gt;&lt;sub&gt;&lt;font style=&quot;font-size: 20px&quot;&gt;[SEP]&lt;/font&gt;&lt;/sub&gt;&lt;/font&gt;" style="rounded=1;whiteSpace=wrap;html=1;fillColor=#dae8fc;strokeColor=#6c8ebf;" parent="1" vertex="1">
          <mxGeometry x="620.75" y="751" width="72" height="33.5" as="geometry" />
        </mxCell>
        <mxCell id="-iZUTilEa2WBl7ZFIHIT-56" value="&lt;font&gt;&lt;font style=&quot;font-size: 28px&quot;&gt;T&lt;/font&gt;&lt;sub&gt;&lt;font style=&quot;font-size: 20px&quot;&gt;M&lt;/font&gt;&lt;/sub&gt;&lt;/font&gt;" style="rounded=1;whiteSpace=wrap;html=1;fillColor=#dae8fc;strokeColor=#6c8ebf;" parent="1" vertex="1">
          <mxGeometry x="536.75" y="751" width="75" height="33.5" as="geometry" />
        </mxCell>
        <mxCell id="-iZUTilEa2WBl7ZFIHIT-59" value="&lt;font style=&quot;font-size: 28px&quot;&gt;V&lt;/font&gt;&lt;font style=&quot;font-size: 23.3333px&quot;&gt;&lt;sub&gt;t&lt;/sub&gt;&lt;/font&gt;" style="rounded=0;whiteSpace=wrap;html=1;fillColor=#d5e8d4;strokeColor=#82b366;" parent="1" vertex="1">
          <mxGeometry x="334.75" y="645" width="96" height="53" as="geometry" />
        </mxCell>
        <mxCell id="-iZUTilEa2WBl7ZFIHIT-60" value="" style="shape=flexArrow;endArrow=classic;html=1;fillColor=#f8cecc;strokeColor=#b85450;" parent="1" edge="1">
          <mxGeometry width="50" height="50" relative="1" as="geometry">
            <mxPoint x="380.75" y="740" as="sourcePoint" />
            <mxPoint x="380.75" y="696" as="targetPoint" />
            <Array as="points">
              <mxPoint x="380.75" y="715.5" />
            </Array>
          </mxGeometry>
        </mxCell>
        <mxCell id="-iZUTilEa2WBl7ZFIHIT-61" value="" style="shape=flexArrow;endArrow=classic;html=1;" parent="1" edge="1">
          <mxGeometry width="50" height="50" relative="1" as="geometry">
            <mxPoint x="383.75" y="911" as="sourcePoint" />
            <mxPoint x="383.75" y="867" as="targetPoint" />
          </mxGeometry>
        </mxCell>
        <mxCell id="-iZUTilEa2WBl7ZFIHIT-62" value="" style="shape=flexArrow;endArrow=classic;html=1;" parent="1" edge="1">
          <mxGeometry width="50" height="50" relative="1" as="geometry">
            <mxPoint x="458.75" y="911" as="sourcePoint" />
            <mxPoint x="458.75" y="867" as="targetPoint" />
          </mxGeometry>
        </mxCell>
        <mxCell id="-iZUTilEa2WBl7ZFIHIT-63" value="" style="shape=flexArrow;endArrow=classic;html=1;" parent="1" edge="1">
          <mxGeometry width="50" height="50" relative="1" as="geometry">
            <mxPoint x="578.75" y="911" as="sourcePoint" />
            <mxPoint x="578.75" y="867" as="targetPoint" />
          </mxGeometry>
        </mxCell>
        <mxCell id="-iZUTilEa2WBl7ZFIHIT-65" value="" style="shape=flexArrow;endArrow=classic;html=1;" parent="1" edge="1">
          <mxGeometry width="50" height="50" relative="1" as="geometry">
            <mxPoint x="673.75" y="911" as="sourcePoint" />
            <mxPoint x="673.75" y="867" as="targetPoint" />
          </mxGeometry>
        </mxCell>
        <mxCell id="-iZUTilEa2WBl7ZFIHIT-69" value="&lt;font style=&quot;font-size: 35px&quot;&gt;Stage1&lt;/font&gt;" style="text;strokeColor=none;fillColor=none;html=1;fontSize=24;fontStyle=1;verticalAlign=middle;align=center;" parent="1" vertex="1">
          <mxGeometry x="924.75" y="632.25" width="182" height="65" as="geometry" />
        </mxCell>
        <mxCell id="-iZUTilEa2WBl7ZFIHIT-89" value="" style="shape=waypoint;sketch=0;size=6;pointerEvents=1;points=[];fillColor=none;resizable=0;rotatable=0;perimeter=centerPerimeter;snapToPoint=1;strokeWidth=1;strokeColor=#787878;" parent="1" vertex="1">
          <mxGeometry x="493.25" y="827.5" width="40" height="40" as="geometry" />
        </mxCell>
        <mxCell id="-iZUTilEa2WBl7ZFIHIT-90" value="" style="shape=waypoint;sketch=0;size=6;pointerEvents=1;points=[];fillColor=none;resizable=0;rotatable=0;perimeter=centerPerimeter;snapToPoint=1;strokeWidth=1;strokeColor=#787878;" parent="1" vertex="1">
          <mxGeometry x="504.25" y="827.5" width="40" height="40" as="geometry" />
        </mxCell>
        <mxCell id="-iZUTilEa2WBl7ZFIHIT-91" value="" style="shape=waypoint;sketch=0;size=6;pointerEvents=1;points=[];fillColor=none;resizable=0;rotatable=0;perimeter=centerPerimeter;snapToPoint=1;strokeWidth=1;strokeColor=#787878;" parent="1" vertex="1">
          <mxGeometry x="493.25" y="744.5" width="40" height="40" as="geometry" />
        </mxCell>
        <mxCell id="-iZUTilEa2WBl7ZFIHIT-92" value="" style="shape=waypoint;sketch=0;size=6;pointerEvents=1;points=[];fillColor=none;resizable=0;rotatable=0;perimeter=centerPerimeter;snapToPoint=1;strokeWidth=1;strokeColor=#787878;" parent="1" vertex="1">
          <mxGeometry x="504.25" y="744.5" width="40" height="40" as="geometry" />
        </mxCell>
        <UserObject label="&lt;font style=&quot;font-size: 28px&quot;&gt;Report=(summary,description)&lt;/font&gt;" placeholders="1" name="Variable" id="-iZUTilEa2WBl7ZFIHIT-94">
          <mxCell style="text;html=1;strokeColor=#6c8ebf;fillColor=#dae8fc;align=center;verticalAlign=middle;whiteSpace=wrap;overflow=hidden;" parent="1" vertex="1">
            <mxGeometry x="203" y="1574.5" width="286" height="108.5" as="geometry" />
          </mxCell>
        </UserObject>
        <UserObject label="&lt;font style=&quot;font-size: 28px&quot;&gt;Source File=(func&lt;sub&gt;1&lt;/sub&gt;,...,func&lt;sub&gt;k&lt;/sub&gt;)&lt;/font&gt;" placeholders="1" name="Variable" id="-iZUTilEa2WBl7ZFIHIT-95">
          <mxCell style="text;html=1;strokeColor=#6c8ebf;fillColor=#dae8fc;align=center;verticalAlign=middle;whiteSpace=wrap;overflow=hidden;" parent="1" vertex="1">
            <mxGeometry x="513" y="1574.5" width="275" height="108.5" as="geometry" />
          </mxCell>
        </UserObject>
        <UserObject label="&lt;font style=&quot;font-size: 28px&quot;&gt;sum.&lt;/font&gt;" placeholders="1" name="Variable" id="-iZUTilEa2WBl7ZFIHIT-126">
          <mxCell style="text;html=1;strokeColor=none;fillColor=none;align=center;verticalAlign=middle;whiteSpace=wrap;overflow=hidden;" parent="1" vertex="1">
            <mxGeometry x="182.25" y="1319.5" width="94.5" height="30" as="geometry" />
          </mxCell>
        </UserObject>
        <UserObject label="&lt;font style=&quot;font-size: 28px&quot;&gt;desc.&lt;/font&gt;" placeholders="1" name="Variable" id="-iZUTilEa2WBl7ZFIHIT-127">
          <mxCell style="text;html=1;strokeColor=none;fillColor=none;align=center;verticalAlign=middle;whiteSpace=wrap;overflow=hidden;" parent="1" vertex="1">
            <mxGeometry x="169" y="1381.25" width="121" height="34" as="geometry" />
          </mxCell>
        </UserObject>
        <UserObject label="&lt;font style=&quot;font-size: 28px&quot;&gt;&lt;font style=&quot;font-size: 28px&quot;&gt;func&lt;/font&gt;&lt;font style=&quot;font-size: 28px&quot;&gt;&lt;sub&gt;k&lt;/sub&gt;&lt;/font&gt;&lt;/font&gt;" placeholders="1" name="Variable" id="-iZUTilEa2WBl7ZFIHIT-129">
          <mxCell style="text;html=1;strokeColor=none;fillColor=none;align=center;verticalAlign=middle;whiteSpace=wrap;overflow=hidden;" parent="1" vertex="1">
            <mxGeometry x="545.5" y="1254" width="125.5" height="44" as="geometry" />
          </mxCell>
        </UserObject>
        <mxCell id="-iZUTilEa2WBl7ZFIHIT-130" value="" style="shape=waypoint;sketch=0;size=6;pointerEvents=1;points=[];fillColor=none;resizable=0;rotatable=0;perimeter=centerPerimeter;snapToPoint=1;strokeWidth=1;strokeColor=#787878;" parent="1" vertex="1">
          <mxGeometry x="438" y="1259.5" width="40" height="40" as="geometry" />
        </mxCell>
        <mxCell id="-iZUTilEa2WBl7ZFIHIT-131" value="" style="shape=waypoint;sketch=0;size=6;pointerEvents=1;points=[];fillColor=none;resizable=0;rotatable=0;perimeter=centerPerimeter;snapToPoint=1;strokeWidth=1;strokeColor=#787878;" parent="1" vertex="1">
          <mxGeometry x="474.5" y="1259.5" width="40" height="40" as="geometry" />
        </mxCell>
        <mxCell id="-iZUTilEa2WBl7ZFIHIT-132" value="" style="shape=waypoint;sketch=0;size=6;pointerEvents=1;points=[];fillColor=none;resizable=0;rotatable=0;perimeter=centerPerimeter;snapToPoint=1;strokeWidth=1;strokeColor=#787878;" parent="1" vertex="1">
          <mxGeometry x="405" y="1259.5" width="40" height="40" as="geometry" />
        </mxCell>
        <mxCell id="-iZUTilEa2WBl7ZFIHIT-133" value="&lt;font size=&quot;1&quot;&gt;&lt;b style=&quot;font-size: 28px&quot;&gt;fine-tuned LM&lt;/b&gt;&lt;/font&gt;" style="rounded=1;whiteSpace=wrap;html=1;strokeColor=#d79b00;strokeWidth=1;fillColor=#ffe6cc;" parent="1" vertex="1">
          <mxGeometry x="407" y="1453.5" width="148.5" height="88" as="geometry" />
        </mxCell>
        <mxCell id="-iZUTilEa2WBl7ZFIHIT-135" value="" style="endArrow=classic;html=1;exitX=0.5;exitY=0;exitDx=0;exitDy=0;entryX=0.631;entryY=1.017;entryDx=0;entryDy=0;entryPerimeter=0;" parent="1" source="-iZUTilEa2WBl7ZFIHIT-95" target="-iZUTilEa2WBl7ZFIHIT-133" edge="1">
          <mxGeometry width="50" height="50" relative="1" as="geometry">
            <mxPoint x="537" y="1574.5" as="sourcePoint" />
            <mxPoint x="649.5" y="1538.87" as="targetPoint" />
          </mxGeometry>
        </mxCell>
        <mxCell id="-iZUTilEa2WBl7ZFIHIT-136" value="&lt;font style=&quot;font-size: 28px&quot;&gt;max,mean&lt;/font&gt;" style="rounded=1;whiteSpace=wrap;html=1;strokeWidth=1;fillColor=#dae8fc;gradientColor=#7ea6e0;strokeColor=#6c8ebf;" parent="1" vertex="1">
          <mxGeometry x="724" y="1248" width="142" height="61.5" as="geometry" />
        </mxCell>
        <mxCell id="-iZUTilEa2WBl7ZFIHIT-137" value="" style="shape=flexArrow;endArrow=classic;html=1;fillColor=#fad9d5;strokeColor=#ae4132;" parent="1" edge="1">
          <mxGeometry width="50" height="50" relative="1" as="geometry">
            <mxPoint x="718" y="1343.75" as="sourcePoint" />
            <mxPoint x="889" y="1344.25" as="targetPoint" />
          </mxGeometry>
        </mxCell>
        <mxCell id="-iZUTilEa2WBl7ZFIHIT-138" value="" style="endArrow=classic;html=1;exitX=0.5;exitY=0;exitDx=0;exitDy=0;" parent="1" source="-iZUTilEa2WBl7ZFIHIT-133" edge="1">
          <mxGeometry width="50" height="50" relative="1" as="geometry">
            <mxPoint x="350" y="1470.5" as="sourcePoint" />
            <mxPoint x="481" y="1417" as="targetPoint" />
          </mxGeometry>
        </mxCell>
        <mxCell id="-iZUTilEa2WBl7ZFIHIT-167" value="" style="shape=table;html=1;whiteSpace=wrap;startSize=0;container=1;collapsible=0;childLayout=tableLayout;strokeColor=#d6b656;strokeWidth=1;resizeWidth=0;resizeHeight=1;treeFolding=0;treeMoving=0;resizable=0;rotatable=0;fillColor=#fff2cc;" parent="1" vertex="1">
          <mxGeometry x="889" y="1248" width="77" height="262" as="geometry" />
        </mxCell>
        <mxCell id="-iZUTilEa2WBl7ZFIHIT-204" style="shape=partialRectangle;html=1;whiteSpace=wrap;collapsible=0;dropTarget=0;pointerEvents=0;fillColor=none;top=0;left=0;bottom=0;right=0;points=[[0,0.5],[1,0.5]];portConstraint=eastwest;" parent="-iZUTilEa2WBl7ZFIHIT-167" vertex="1">
          <mxGeometry width="77" height="64" as="geometry" />
        </mxCell>
        <mxCell id="-iZUTilEa2WBl7ZFIHIT-205" value="&lt;font&gt;&lt;font style=&quot;font-size: 28px&quot;&gt;S&lt;/font&gt;&lt;font style=&quot;font-size: 23.3333px&quot;&gt;mean&lt;/font&gt;&lt;/font&gt;" style="shape=partialRectangle;html=1;whiteSpace=wrap;connectable=0;fillColor=#f8cecc;top=0;left=0;bottom=0;right=0;overflow=hidden;flipV=0;gradientColor=#ea6b66;strokeColor=#b85450;" parent="-iZUTilEa2WBl7ZFIHIT-204" vertex="1">
          <mxGeometry width="77" height="64" as="geometry">
            <mxRectangle width="77" height="64" as="alternateBounds" />
          </mxGeometry>
        </mxCell>
        <mxCell id="_IGx-YOJKHYXZS7TmAqJ-15" style="shape=partialRectangle;html=1;whiteSpace=wrap;collapsible=0;dropTarget=0;pointerEvents=0;fillColor=none;top=0;left=0;bottom=0;right=0;points=[[0,0.5],[1,0.5]];portConstraint=eastwest;" parent="-iZUTilEa2WBl7ZFIHIT-167" vertex="1">
          <mxGeometry y="64" width="77" height="64" as="geometry" />
        </mxCell>
        <mxCell id="_IGx-YOJKHYXZS7TmAqJ-16" value="&lt;sub&gt;&lt;font style=&quot;font-size: 29px&quot;&gt;Smax&lt;/font&gt;&lt;/sub&gt;" style="shape=partialRectangle;html=1;whiteSpace=wrap;connectable=0;fillColor=#f8cecc;top=0;left=0;bottom=0;right=0;overflow=hidden;flipV=0;gradientColor=#ea6b66;strokeColor=#b85450;" parent="_IGx-YOJKHYXZS7TmAqJ-15" vertex="1">
          <mxGeometry width="77" height="64" as="geometry">
            <mxRectangle width="77" height="64" as="alternateBounds" />
          </mxGeometry>
        </mxCell>
        <mxCell id="-iZUTilEa2WBl7ZFIHIT-231" style="shape=partialRectangle;html=1;whiteSpace=wrap;collapsible=0;dropTarget=0;pointerEvents=0;fillColor=none;top=0;left=0;bottom=0;right=0;points=[[0,0.5],[1,0.5]];portConstraint=eastwest;" parent="-iZUTilEa2WBl7ZFIHIT-167" vertex="1">
          <mxGeometry y="128" width="77" height="67" as="geometry" />
        </mxCell>
        <mxCell id="-iZUTilEa2WBl7ZFIHIT-232" value="&lt;font&gt;&lt;font&gt;&lt;sub&gt;&lt;span style=&quot;font-size: 28px&quot;&gt;Dmax&lt;/span&gt;&lt;/sub&gt;&lt;/font&gt;&lt;/font&gt;" style="shape=partialRectangle;html=1;whiteSpace=wrap;connectable=0;fillColor=#d5e8d4;top=0;left=0;bottom=0;right=0;overflow=hidden;flipV=0;gradientColor=#97d077;strokeColor=#82b366;" parent="-iZUTilEa2WBl7ZFIHIT-231" vertex="1">
          <mxGeometry width="77" height="67" as="geometry">
            <mxRectangle width="77" height="67" as="alternateBounds" />
          </mxGeometry>
        </mxCell>
        <mxCell id="_IGx-YOJKHYXZS7TmAqJ-17" style="shape=partialRectangle;html=1;whiteSpace=wrap;collapsible=0;dropTarget=0;pointerEvents=0;fillColor=none;top=0;left=0;bottom=0;right=0;points=[[0,0.5],[1,0.5]];portConstraint=eastwest;" parent="-iZUTilEa2WBl7ZFIHIT-167" vertex="1">
          <mxGeometry y="195" width="77" height="67" as="geometry" />
        </mxCell>
        <mxCell id="_IGx-YOJKHYXZS7TmAqJ-18" value="&lt;font style=&quot;font-size: 24px&quot;&gt;Dmean&lt;/font&gt;" style="shape=partialRectangle;html=1;whiteSpace=wrap;connectable=0;fillColor=#d5e8d4;top=0;left=0;bottom=0;right=0;overflow=hidden;flipV=0;gradientColor=#97d077;strokeColor=#82b366;" parent="_IGx-YOJKHYXZS7TmAqJ-17" vertex="1">
          <mxGeometry width="77" height="67" as="geometry">
            <mxRectangle width="77" height="67" as="alternateBounds" />
          </mxGeometry>
        </mxCell>
        <mxCell id="-iZUTilEa2WBl7ZFIHIT-234" value="" style="shape=table;html=1;whiteSpace=wrap;startSize=0;container=1;collapsible=0;childLayout=tableLayout;strokeColor=#d6b656;strokeWidth=1;resizeWidth=0;resizeHeight=1;treeFolding=0;treeMoving=0;resizable=0;rotatable=0;fillColor=#fff2cc;" parent="1" vertex="1">
          <mxGeometry x="889" y="1510" width="77" height="267.5" as="geometry" />
        </mxCell>
        <mxCell id="-iZUTilEa2WBl7ZFIHIT-249" style="shape=partialRectangle;html=1;whiteSpace=wrap;collapsible=0;dropTarget=0;pointerEvents=0;fillColor=none;top=0;left=0;bottom=0;right=0;points=[[0,0.5],[1,0.5]];portConstraint=eastwest;" parent="-iZUTilEa2WBl7ZFIHIT-234" vertex="1">
          <mxGeometry width="77" height="67" as="geometry" />
        </mxCell>
        <mxCell id="-iZUTilEa2WBl7ZFIHIT-250" value="&lt;font style=&quot;font-size: 28px&quot;&gt;&lt;font style=&quot;font-size: 28px&quot;&gt;F&lt;/font&gt;&lt;font style=&quot;font-size: 28px&quot;&gt;&lt;sub&gt;1&lt;/sub&gt;&lt;/font&gt;&lt;/font&gt;" style="shape=partialRectangle;html=1;whiteSpace=wrap;connectable=0;fillColor=none;top=0;left=0;bottom=0;right=0;overflow=hidden;flipV=0;" parent="-iZUTilEa2WBl7ZFIHIT-249" vertex="1">
          <mxGeometry width="77" height="67" as="geometry">
            <mxRectangle width="77" height="67" as="alternateBounds" />
          </mxGeometry>
        </mxCell>
        <mxCell id="-iZUTilEa2WBl7ZFIHIT-247" style="shape=partialRectangle;html=1;whiteSpace=wrap;collapsible=0;dropTarget=0;pointerEvents=0;fillColor=none;top=0;left=0;bottom=0;right=0;points=[[0,0.5],[1,0.5]];portConstraint=eastwest;" parent="-iZUTilEa2WBl7ZFIHIT-234" vertex="1">
          <mxGeometry y="67" width="77" height="67" as="geometry" />
        </mxCell>
        <mxCell id="-iZUTilEa2WBl7ZFIHIT-248" value="&lt;font style=&quot;font-size: 28px&quot;&gt;&lt;font style=&quot;font-size: 28px&quot;&gt;F&lt;/font&gt;&lt;font style=&quot;font-size: 28px&quot;&gt;&lt;sub&gt;2&lt;/sub&gt;&lt;/font&gt;&lt;/font&gt;" style="shape=partialRectangle;html=1;whiteSpace=wrap;connectable=0;fillColor=none;top=0;left=0;bottom=0;right=0;overflow=hidden;flipV=0;" parent="-iZUTilEa2WBl7ZFIHIT-247" vertex="1">
          <mxGeometry width="77" height="67" as="geometry">
            <mxRectangle width="77" height="67" as="alternateBounds" />
          </mxGeometry>
        </mxCell>
        <mxCell id="-iZUTilEa2WBl7ZFIHIT-235" style="shape=partialRectangle;html=1;whiteSpace=wrap;collapsible=0;dropTarget=0;pointerEvents=0;fillColor=none;top=0;left=0;bottom=0;right=0;points=[[0,0.5],[1,0.5]];portConstraint=eastwest;" parent="-iZUTilEa2WBl7ZFIHIT-234" vertex="1">
          <mxGeometry y="134" width="77" height="67" as="geometry" />
        </mxCell>
        <mxCell id="-iZUTilEa2WBl7ZFIHIT-236" value="" style="shape=partialRectangle;html=1;whiteSpace=wrap;connectable=0;fillColor=none;top=0;left=0;bottom=0;right=0;overflow=hidden;flipV=0;" parent="-iZUTilEa2WBl7ZFIHIT-235" vertex="1">
          <mxGeometry width="77" height="67" as="geometry">
            <mxRectangle width="77" height="67" as="alternateBounds" />
          </mxGeometry>
        </mxCell>
        <mxCell id="-iZUTilEa2WBl7ZFIHIT-237" style="shape=partialRectangle;html=1;whiteSpace=wrap;collapsible=0;dropTarget=0;pointerEvents=0;fillColor=none;top=0;left=0;bottom=0;right=0;points=[[0,0.5],[1,0.5]];portConstraint=eastwest;" parent="-iZUTilEa2WBl7ZFIHIT-234" vertex="1">
          <mxGeometry y="201" width="77" height="67" as="geometry" />
        </mxCell>
        <mxCell id="-iZUTilEa2WBl7ZFIHIT-238" value="&lt;font style=&quot;font-size: 28px&quot;&gt;&lt;font style=&quot;font-size: 28px&quot;&gt;F&lt;/font&gt;&lt;font style=&quot;font-size: 28px&quot;&gt;&lt;sub&gt;19&lt;/sub&gt;&lt;/font&gt;&lt;/font&gt;" style="shape=partialRectangle;html=1;whiteSpace=wrap;connectable=0;fillColor=none;top=0;left=0;bottom=0;right=0;overflow=hidden;flipV=0;" parent="-iZUTilEa2WBl7ZFIHIT-237" vertex="1">
          <mxGeometry width="77" height="67" as="geometry">
            <mxRectangle width="77" height="67" as="alternateBounds" />
          </mxGeometry>
        </mxCell>
        <mxCell id="-iZUTilEa2WBl7ZFIHIT-251" value="" style="shape=waypoint;sketch=0;size=6;pointerEvents=1;points=[];fillColor=none;resizable=0;rotatable=0;perimeter=centerPerimeter;snapToPoint=1;strokeWidth=1;strokeColor=#787878;" parent="1" vertex="1">
          <mxGeometry x="907.5" y="1643" width="40" height="40" as="geometry" />
        </mxCell>
        <mxCell id="-iZUTilEa2WBl7ZFIHIT-252" value="" style="shape=waypoint;sketch=0;size=6;pointerEvents=1;points=[];fillColor=none;resizable=0;rotatable=0;perimeter=centerPerimeter;snapToPoint=1;strokeWidth=1;strokeColor=#787878;fontSize=14;" parent="1" vertex="1">
          <mxGeometry x="907.5" y="1665" width="40" height="40" as="geometry" />
        </mxCell>
        <mxCell id="-iZUTilEa2WBl7ZFIHIT-253" value="&lt;font style=&quot;font-size: 28px&quot;&gt;IR Features&lt;/font&gt;" style="rounded=1;whiteSpace=wrap;html=1;strokeColor=#d79b00;strokeWidth=1;fillColor=#ffe6cc;" parent="1" vertex="1">
          <mxGeometry x="980.5" y="1712" width="120" height="60" as="geometry" />
        </mxCell>
        <mxCell id="-iZUTilEa2WBl7ZFIHIT-254" value="" style="shape=flexArrow;endArrow=classic;html=1;endWidth=42;endSize=7;width=25;fillColor=#dae8fc;strokeColor=#6c8ebf;" parent="1" edge="1">
          <mxGeometry width="50" height="50" relative="1" as="geometry">
            <mxPoint x="985" y="1510" as="sourcePoint" />
            <mxPoint x="1051" y="1510" as="targetPoint" />
            <Array as="points">
              <mxPoint x="1062" y="1510" />
            </Array>
          </mxGeometry>
        </mxCell>
        <mxCell id="-iZUTilEa2WBl7ZFIHIT-255" value="" style="shape=flexArrow;endArrow=classic;html=1;fillColor=#d5e8d4;strokeColor=#82b366;" parent="1" edge="1">
          <mxGeometry width="50" height="50" relative="1" as="geometry">
            <mxPoint x="718" y="1397.75" as="sourcePoint" />
            <mxPoint x="889" y="1398.25" as="targetPoint" />
          </mxGeometry>
        </mxCell>
        <mxCell id="-iZUTilEa2WBl7ZFIHIT-256" value="&lt;p&gt;&lt;font style=&quot;font-size: 28px&quot;&gt;LTR&lt;/font&gt;&lt;/p&gt;" style="rounded=0;whiteSpace=wrap;html=1;comic=0;pointerEvents=1;strokeColor=#6c8ebf;strokeWidth=1;fillColor=#dae8fc;" parent="1" vertex="1">
          <mxGeometry x="1066" y="1305.25" width="52" height="384.75" as="geometry" />
        </mxCell>
        <mxCell id="-iZUTilEa2WBl7ZFIHIT-258" value="" style="shape=flexArrow;endArrow=classic;html=1;fillColor=#dae8fc;strokeColor=#6c8ebf;" parent="1" edge="1">
          <mxGeometry width="50" height="50" relative="1" as="geometry">
            <mxPoint x="1131" y="1508.01" as="sourcePoint" />
            <mxPoint x="1175" y="1508" as="targetPoint" />
          </mxGeometry>
        </mxCell>
        <mxCell id="-iZUTilEa2WBl7ZFIHIT-259" value="&lt;font style=&quot;font-size: 28px&quot;&gt;relevance&lt;/font&gt;" style="ellipse;whiteSpace=wrap;html=1;comic=0;pointerEvents=1;strokeColor=#82b366;strokeWidth=1;fillColor=#d5e8d4;" parent="1" vertex="1">
          <mxGeometry x="1183" y="1475" width="139" height="65" as="geometry" />
        </mxCell>
        <mxCell id="-iZUTilEa2WBl7ZFIHIT-134" value="" style="endArrow=classic;html=1;entryX=0.5;entryY=1;entryDx=0;entryDy=0;exitX=0.5;exitY=0;exitDx=0;exitDy=0;" parent="1" source="-iZUTilEa2WBl7ZFIHIT-94" target="-iZUTilEa2WBl7ZFIHIT-133" edge="1">
          <mxGeometry width="50" height="50" relative="1" as="geometry">
            <mxPoint x="383" y="1574.5" as="sourcePoint" />
            <mxPoint x="471" y="1530.5" as="targetPoint" />
          </mxGeometry>
        </mxCell>
        <mxCell id="-iZUTilEa2WBl7ZFIHIT-265" value="&lt;font style=&quot;font-size: 35px&quot;&gt;Stage2&lt;/font&gt;" style="text;strokeColor=none;fillColor=none;html=1;fontSize=24;fontStyle=1;verticalAlign=middle;align=center;" parent="1" vertex="1">
          <mxGeometry x="1087" y="1239" width="100" height="40" as="geometry" />
        </mxCell>
        <mxCell id="-iZUTilEa2WBl7ZFIHIT-269" value="" style="shape=table;html=1;whiteSpace=wrap;startSize=0;container=1;collapsible=0;childLayout=tableLayout;rounded=0;shadow=0;comic=0;pointerEvents=1;strokeWidth=1;backgroundOutline=0;strokeColor=#FFB570;" parent="1" vertex="1">
          <mxGeometry x="284" y="1312.25" width="385.75" height="99.5" as="geometry" />
        </mxCell>
        <mxCell id="M5m0A7ecpoJwqgUNedFu-4" style="shape=partialRectangle;html=1;whiteSpace=wrap;collapsible=0;dropTarget=0;pointerEvents=0;fillColor=none;top=0;left=0;bottom=0;right=0;points=[[0,0.5],[1,0.5]];portConstraint=eastwest;" parent="-iZUTilEa2WBl7ZFIHIT-269" vertex="1">
          <mxGeometry width="385.75" height="50" as="geometry" />
        </mxCell>
        <mxCell id="M5m0A7ecpoJwqgUNedFu-5" style="shape=partialRectangle;html=1;whiteSpace=wrap;connectable=0;fillColor=#d80073;top=0;left=0;bottom=0;right=0;overflow=hidden;sketch=1;strokeColor=#A50040;fontColor=#ffffff;" parent="M5m0A7ecpoJwqgUNedFu-4" vertex="1">
          <mxGeometry width="128" height="50" as="geometry">
            <mxRectangle width="128" height="50" as="alternateBounds" />
          </mxGeometry>
        </mxCell>
        <mxCell id="M5m0A7ecpoJwqgUNedFu-6" style="shape=partialRectangle;html=1;whiteSpace=wrap;connectable=0;fillColor=#d80073;top=0;left=0;bottom=0;right=0;overflow=hidden;sketch=1;strokeColor=#A50040;fontColor=#ffffff;" parent="M5m0A7ecpoJwqgUNedFu-4" vertex="1">
          <mxGeometry x="128" width="130" height="50" as="geometry">
            <mxRectangle width="130" height="50" as="alternateBounds" />
          </mxGeometry>
        </mxCell>
        <mxCell id="M5m0A7ecpoJwqgUNedFu-7" style="shape=partialRectangle;html=1;whiteSpace=wrap;connectable=0;fillColor=#d80073;top=0;left=0;bottom=0;right=0;overflow=hidden;sketch=1;strokeColor=#A50040;strokeWidth=1;fontColor=#ffffff;" parent="M5m0A7ecpoJwqgUNedFu-4" vertex="1">
          <mxGeometry x="258" width="128" height="50" as="geometry">
            <mxRectangle width="128" height="50" as="alternateBounds" />
          </mxGeometry>
        </mxCell>
        <mxCell id="-iZUTilEa2WBl7ZFIHIT-274" value="" style="shape=partialRectangle;html=1;whiteSpace=wrap;collapsible=0;dropTarget=0;pointerEvents=0;fillColor=none;top=0;left=0;bottom=0;right=0;points=[[0,0.5],[1,0.5]];portConstraint=eastwest;" parent="-iZUTilEa2WBl7ZFIHIT-269" vertex="1">
          <mxGeometry y="50" width="385.75" height="50" as="geometry" />
        </mxCell>
        <mxCell id="-iZUTilEa2WBl7ZFIHIT-275" value="" style="shape=partialRectangle;html=1;whiteSpace=wrap;connectable=0;fillColor=none;top=0;left=0;bottom=0;right=0;overflow=hidden;" parent="-iZUTilEa2WBl7ZFIHIT-274" vertex="1">
          <mxGeometry width="128" height="50" as="geometry">
            <mxRectangle width="128" height="50" as="alternateBounds" />
          </mxGeometry>
        </mxCell>
        <mxCell id="-iZUTilEa2WBl7ZFIHIT-276" value="&lt;font style=&quot;font-size: 28px&quot;&gt;&lt;font style=&quot;font-size: 28px&quot;&gt;Cos&lt;/font&gt;&lt;sub&gt;ij&lt;/sub&gt;&lt;/font&gt;" style="shape=partialRectangle;html=1;whiteSpace=wrap;connectable=0;fillColor=none;top=0;left=0;bottom=0;right=0;overflow=hidden;" parent="-iZUTilEa2WBl7ZFIHIT-274" vertex="1">
          <mxGeometry x="128" width="130" height="50" as="geometry">
            <mxRectangle width="130" height="50" as="alternateBounds" />
          </mxGeometry>
        </mxCell>
        <mxCell id="-iZUTilEa2WBl7ZFIHIT-277" value="" style="shape=partialRectangle;html=1;whiteSpace=wrap;connectable=0;fillColor=none;top=0;left=0;bottom=0;right=0;overflow=hidden;" parent="-iZUTilEa2WBl7ZFIHIT-274" vertex="1">
          <mxGeometry x="258" width="128" height="50" as="geometry">
            <mxRectangle width="128" height="50" as="alternateBounds" />
          </mxGeometry>
        </mxCell>
        <mxCell id="r0zvoIGPUsBEDC_ozORA-17" value="&lt;font style=&quot;font-size: 28px&quot;&gt;V&lt;sub&gt;c&lt;/sub&gt;&lt;/font&gt;" style="rounded=0;whiteSpace=wrap;html=1;fillColor=#d5e8d4;strokeColor=#82b366;" parent="1" vertex="1">
          <mxGeometry x="741.75" y="642" width="96" height="53" as="geometry" />
        </mxCell>
        <mxCell id="r0zvoIGPUsBEDC_ozORA-18" value="" style="shape=flexArrow;endArrow=classic;html=1;fillColor=#f8cecc;strokeColor=#b85450;" parent="1" edge="1">
          <mxGeometry width="50" height="50" relative="1" as="geometry">
            <mxPoint x="789.25" y="739" as="sourcePoint" />
            <mxPoint x="789.25" y="695" as="targetPoint" />
          </mxGeometry>
        </mxCell>
        <mxCell id="r0zvoIGPUsBEDC_ozORA-27" value="&lt;font style=&quot;font-size: 28px&quot;&gt;similarity=cos(V&lt;/font&gt;&lt;font&gt;&lt;span style=&quot;font-size: 23.3333px&quot;&gt;&lt;sub&gt;t&lt;/sub&gt;&lt;/span&gt;&lt;span style=&quot;font-size: 28px&quot;&gt;,V&lt;sub&gt;c&lt;/sub&gt;&lt;/span&gt;&lt;span style=&quot;font-size: 28px&quot;&gt;)&lt;/span&gt;&lt;/font&gt;" style="rounded=1;whiteSpace=wrap;html=1;fillColor=#fff2cc;strokeColor=#d6b656;" parent="1" vertex="1">
          <mxGeometry x="452.75" y="599.37" width="276" height="60" as="geometry" />
        </mxCell>
        <mxCell id="r0zvoIGPUsBEDC_ozORA-28" value="" style="endArrow=classic;html=1;entryX=0;entryY=0.5;entryDx=0;entryDy=0;exitX=1;exitY=0.5;exitDx=0;exitDy=0;" parent="1" source="-iZUTilEa2WBl7ZFIHIT-59" target="r0zvoIGPUsBEDC_ozORA-27" edge="1">
          <mxGeometry width="50" height="50" relative="1" as="geometry">
            <mxPoint x="443.25" y="677.5" as="sourcePoint" />
            <mxPoint x="493.25" y="627.5" as="targetPoint" />
          </mxGeometry>
        </mxCell>
        <mxCell id="r0zvoIGPUsBEDC_ozORA-29" value="" style="endArrow=classic;html=1;exitX=0;exitY=0.5;exitDx=0;exitDy=0;entryX=1;entryY=0.5;entryDx=0;entryDy=0;" parent="1" source="r0zvoIGPUsBEDC_ozORA-17" target="r0zvoIGPUsBEDC_ozORA-27" edge="1">
          <mxGeometry width="50" height="50" relative="1" as="geometry">
            <mxPoint x="665.25" y="668" as="sourcePoint" />
            <mxPoint x="665.75" y="638.5" as="targetPoint" />
          </mxGeometry>
        </mxCell>
        <mxCell id="B_KcGinwrzmEVHsLWksB-5" value="&lt;span style=&quot;font-size: 28px&quot;&gt;C&lt;/span&gt;" style="rounded=1;whiteSpace=wrap;html=1;fillColor=#dae8fc;strokeColor=#6c8ebf;" parent="1" vertex="1">
          <mxGeometry x="334.75" y="751" width="78.5" height="33.5" as="geometry" />
        </mxCell>
        <mxCell id="B_KcGinwrzmEVHsLWksB-56" value="" style="shape=partialRectangle;whiteSpace=wrap;html=1;bottom=1;right=1;left=1;top=0;fillColor=none;routingCenterX=-0.5;" parent="1" vertex="1">
          <mxGeometry x="872.75" y="944" width="120" height="27" as="geometry" />
        </mxCell>
        <mxCell id="B_KcGinwrzmEVHsLWksB-57" value="&lt;font&gt;&lt;font style=&quot;font-size: 28px&quot;&gt;Tok&lt;/font&gt;&lt;sub&gt;&lt;font style=&quot;font-size: 20px&quot;&gt;1&lt;/font&gt;&lt;/sub&gt;&lt;/font&gt;" style="rounded=1;whiteSpace=wrap;html=1;fillColor=#e1d5e7;strokeColor=#9673a6;" parent="1" vertex="1">
          <mxGeometry x="836.75" y="917" width="85" height="37" as="geometry" />
        </mxCell>
        <mxCell id="B_KcGinwrzmEVHsLWksB-58" value="&lt;font&gt;&lt;font style=&quot;font-size: 28px&quot;&gt;Tok&lt;/font&gt;&lt;sub&gt;&lt;font style=&quot;font-size: 20px&quot;&gt;M&lt;/font&gt;&lt;/sub&gt;&lt;/font&gt;" style="rounded=1;whiteSpace=wrap;html=1;fillColor=#e1d5e7;strokeColor=#9673a6;" parent="1" vertex="1">
          <mxGeometry x="950.75" y="916.5" width="78" height="37" as="geometry" />
        </mxCell>
        <mxCell id="B_KcGinwrzmEVHsLWksB-59" value="&lt;font style=&quot;font-size: 28px&quot;&gt;[SEP]&lt;/font&gt;" style="rounded=1;whiteSpace=wrap;html=1;fillColor=#e1d5e7;strokeColor=#9673a6;" parent="1" vertex="1">
          <mxGeometry x="1036.75" y="917" width="84" height="36.5" as="geometry" />
        </mxCell>
        <mxCell id="B_KcGinwrzmEVHsLWksB-60" value="&lt;font style=&quot;font-size: 28px&quot;&gt;[CLS]&lt;/font&gt;" style="rounded=1;whiteSpace=wrap;html=1;fillColor=#e1d5e7;strokeColor=#9673a6;" parent="1" vertex="1">
          <mxGeometry x="742.75" y="917" width="85" height="36.5" as="geometry" />
        </mxCell>
        <mxCell id="B_KcGinwrzmEVHsLWksB-61" value="&lt;font style=&quot;font-size: 28px&quot;&gt;LanguageModel&lt;/font&gt;" style="shape=ext;double=1;rounded=0;whiteSpace=wrap;html=1;fillColor=#ffe6cc;strokeColor=#d79b00;" parent="1" vertex="1">
          <mxGeometry x="729.75" y="740.5" width="395.5" height="146" as="geometry" />
        </mxCell>
        <mxCell id="B_KcGinwrzmEVHsLWksB-62" value="&lt;font&gt;&lt;font style=&quot;font-size: 28px&quot;&gt;E&lt;/font&gt;&lt;sub&gt;&lt;font style=&quot;font-size: 20px&quot;&gt;[CLS]&lt;/font&gt;&lt;/sub&gt;&lt;/font&gt;" style="rounded=1;whiteSpace=wrap;html=1;fillColor=#f8cecc;strokeColor=#b85450;strokeWidth=1;perimeterSpacing=4;" parent="1" vertex="1">
          <mxGeometry x="749.75" y="823.5" width="71" height="37.5" as="geometry" />
        </mxCell>
        <mxCell id="B_KcGinwrzmEVHsLWksB-63" value="&lt;font&gt;&lt;font style=&quot;font-size: 28px&quot;&gt;E&lt;/font&gt;&lt;sub&gt;&lt;font style=&quot;font-size: 20px&quot;&gt;1&lt;/font&gt;&lt;/sub&gt;&lt;/font&gt;" style="rounded=1;whiteSpace=wrap;html=1;fillColor=#f8cecc;strokeColor=#b85450;strokeWidth=1;perimeterSpacing=4;" parent="1" vertex="1">
          <mxGeometry x="833.25" y="827.25" width="78.5" height="37.5" as="geometry" />
        </mxCell>
        <mxCell id="B_KcGinwrzmEVHsLWksB-64" value="&lt;font&gt;&lt;font style=&quot;font-size: 28px&quot;&gt;E&lt;/font&gt;&lt;sub&gt;&lt;font style=&quot;font-size: 20px&quot;&gt;[SEP]&lt;/font&gt;&lt;/sub&gt;&lt;/font&gt;" style="rounded=1;whiteSpace=wrap;html=1;fillColor=#f8cecc;strokeColor=#b85450;strokeWidth=1;perimeterSpacing=4;" parent="1" vertex="1">
          <mxGeometry x="1034.75" y="826" width="74" height="37.5" as="geometry" />
        </mxCell>
        <mxCell id="B_KcGinwrzmEVHsLWksB-65" value="&lt;font&gt;&lt;font style=&quot;font-size: 28px&quot;&gt;E&lt;/font&gt;&lt;sub&gt;&lt;font style=&quot;font-size: 20px&quot;&gt;M&lt;/font&gt;&lt;/sub&gt;&lt;/font&gt;" style="rounded=1;whiteSpace=wrap;html=1;fillColor=#f8cecc;strokeColor=#b85450;strokeWidth=1;perimeterSpacing=4;" parent="1" vertex="1">
          <mxGeometry x="952.25" y="828.5" width="75" height="37.5" as="geometry" />
        </mxCell>
        <mxCell id="B_KcGinwrzmEVHsLWksB-66" value="&lt;font style=&quot;font-size: 28px&quot;&gt;&lt;font style=&quot;font-size: 28px&quot;&gt;T&lt;/font&gt;&lt;sub&gt;1&lt;/sub&gt;&lt;/font&gt;" style="rounded=1;whiteSpace=wrap;html=1;fillColor=#dae8fc;strokeColor=#6c8ebf;" parent="1" vertex="1">
          <mxGeometry x="833.25" y="751" width="78.5" height="33.5" as="geometry" />
        </mxCell>
        <mxCell id="B_KcGinwrzmEVHsLWksB-67" value="&lt;font&gt;&lt;font style=&quot;font-size: 28px&quot;&gt;T&lt;/font&gt;&lt;sub&gt;&lt;font style=&quot;font-size: 20px&quot;&gt;[SEP]&lt;/font&gt;&lt;/sub&gt;&lt;/font&gt;" style="rounded=1;whiteSpace=wrap;html=1;fillColor=#dae8fc;strokeColor=#6c8ebf;" parent="1" vertex="1">
          <mxGeometry x="1034.75" y="751" width="72" height="33.5" as="geometry" />
        </mxCell>
        <mxCell id="B_KcGinwrzmEVHsLWksB-68" value="&lt;font&gt;&lt;font style=&quot;font-size: 28px&quot;&gt;T&lt;/font&gt;&lt;sub&gt;&lt;font style=&quot;font-size: 20px&quot;&gt;M&lt;/font&gt;&lt;/sub&gt;&lt;/font&gt;" style="rounded=1;whiteSpace=wrap;html=1;fillColor=#dae8fc;strokeColor=#6c8ebf;" parent="1" vertex="1">
          <mxGeometry x="950.75" y="751" width="75" height="33.5" as="geometry" />
        </mxCell>
        <mxCell id="B_KcGinwrzmEVHsLWksB-69" value="" style="shape=flexArrow;endArrow=classic;html=1;" parent="1" edge="1">
          <mxGeometry width="50" height="50" relative="1" as="geometry">
            <mxPoint x="797.75" y="911" as="sourcePoint" />
            <mxPoint x="797.75" y="867" as="targetPoint" />
          </mxGeometry>
        </mxCell>
        <mxCell id="B_KcGinwrzmEVHsLWksB-70" value="" style="shape=flexArrow;endArrow=classic;html=1;" parent="1" edge="1">
          <mxGeometry width="50" height="50" relative="1" as="geometry">
            <mxPoint x="872.75" y="911" as="sourcePoint" />
            <mxPoint x="872.75" y="867" as="targetPoint" />
          </mxGeometry>
        </mxCell>
        <mxCell id="B_KcGinwrzmEVHsLWksB-71" value="" style="shape=flexArrow;endArrow=classic;html=1;" parent="1" edge="1">
          <mxGeometry width="50" height="50" relative="1" as="geometry">
            <mxPoint x="992.75" y="911" as="sourcePoint" />
            <mxPoint x="992.75" y="867" as="targetPoint" />
          </mxGeometry>
        </mxCell>
        <mxCell id="B_KcGinwrzmEVHsLWksB-72" value="" style="shape=flexArrow;endArrow=classic;html=1;" parent="1" edge="1">
          <mxGeometry width="50" height="50" relative="1" as="geometry">
            <mxPoint x="1087.75" y="911" as="sourcePoint" />
            <mxPoint x="1087.75" y="867" as="targetPoint" />
          </mxGeometry>
        </mxCell>
        <mxCell id="B_KcGinwrzmEVHsLWksB-73" value="" style="shape=waypoint;sketch=0;size=6;pointerEvents=1;points=[];fillColor=none;resizable=0;rotatable=0;perimeter=centerPerimeter;snapToPoint=1;strokeWidth=1;strokeColor=#787878;" parent="1" vertex="1">
          <mxGeometry x="907.25" y="827.5" width="40" height="40" as="geometry" />
        </mxCell>
        <mxCell id="B_KcGinwrzmEVHsLWksB-74" value="" style="shape=waypoint;sketch=0;size=6;pointerEvents=1;points=[];fillColor=none;resizable=0;rotatable=0;perimeter=centerPerimeter;snapToPoint=1;strokeWidth=1;strokeColor=#787878;" parent="1" vertex="1">
          <mxGeometry x="918.25" y="827.5" width="40" height="40" as="geometry" />
        </mxCell>
        <mxCell id="B_KcGinwrzmEVHsLWksB-75" value="" style="shape=waypoint;sketch=0;size=6;pointerEvents=1;points=[];fillColor=none;resizable=0;rotatable=0;perimeter=centerPerimeter;snapToPoint=1;strokeWidth=1;strokeColor=#787878;" parent="1" vertex="1">
          <mxGeometry x="907.25" y="744.5" width="40" height="40" as="geometry" />
        </mxCell>
        <mxCell id="B_KcGinwrzmEVHsLWksB-76" value="" style="shape=waypoint;sketch=0;size=6;pointerEvents=1;points=[];fillColor=none;resizable=0;rotatable=0;perimeter=centerPerimeter;snapToPoint=1;strokeWidth=1;strokeColor=#787878;" parent="1" vertex="1">
          <mxGeometry x="918.25" y="744.5" width="40" height="40" as="geometry" />
        </mxCell>
        <mxCell id="B_KcGinwrzmEVHsLWksB-77" value="&lt;span style=&quot;font-size: 28px&quot;&gt;C&lt;/span&gt;" style="rounded=1;whiteSpace=wrap;html=1;fillColor=#dae8fc;strokeColor=#6c8ebf;" parent="1" vertex="1">
          <mxGeometry x="748.75" y="751" width="78.5" height="33.5" as="geometry" />
        </mxCell>
        <mxCell id="M5m0A7ecpoJwqgUNedFu-10" style="shape=partialRectangle;html=1;whiteSpace=wrap;collapsible=0;dropTarget=0;pointerEvents=0;fillColor=none;top=0;left=0;bottom=0;right=0;points=[[0,0.5],[1,0.5]];portConstraint=eastwest;" parent="1" vertex="1">
          <mxGeometry x="281" y="1365" width="385.75" height="52" as="geometry" />
        </mxCell>
        <mxCell id="M5m0A7ecpoJwqgUNedFu-11" style="shape=partialRectangle;html=1;whiteSpace=wrap;connectable=0;fillColor=#33FF99;top=0;left=0;bottom=0;right=0;overflow=hidden;sketch=1;strokeColor=#A50040;fontColor=#ffffff;" parent="M5m0A7ecpoJwqgUNedFu-10" vertex="1">
          <mxGeometry width="128" height="52" as="geometry">
            <mxRectangle width="128" height="50" as="alternateBounds" />
          </mxGeometry>
        </mxCell>
        <mxCell id="M5m0A7ecpoJwqgUNedFu-12" style="shape=partialRectangle;html=1;whiteSpace=wrap;connectable=0;fillColor=#33FF99;top=0;left=0;bottom=0;right=0;overflow=hidden;sketch=1;strokeColor=#A50040;fontColor=#ffffff;" parent="M5m0A7ecpoJwqgUNedFu-10" vertex="1">
          <mxGeometry x="128" width="130" height="52" as="geometry">
            <mxRectangle width="130" height="50" as="alternateBounds" />
          </mxGeometry>
        </mxCell>
        <mxCell id="M5m0A7ecpoJwqgUNedFu-13" style="shape=partialRectangle;html=1;whiteSpace=wrap;connectable=0;fillColor=#33FF33;top=0;left=0;bottom=0;right=0;overflow=hidden;sketch=1;strokeColor=#A50040;strokeWidth=1;fontColor=#ffffff;" parent="M5m0A7ecpoJwqgUNedFu-10" vertex="1">
          <mxGeometry x="258" width="128" height="52" as="geometry">
            <mxRectangle width="128" height="50" as="alternateBounds" />
          </mxGeometry>
        </mxCell>
        <mxCell id="w33IMnsK6YFaEakTSdEN-11" value="" style="shape=waypoint;sketch=0;size=6;pointerEvents=1;points=[];fillColor=none;resizable=0;rotatable=0;perimeter=centerPerimeter;snapToPoint=1;strokeWidth=1;strokeColor=#787878;" parent="1" vertex="1">
          <mxGeometry x="506.75" y="913" width="40" height="40" as="geometry" />
        </mxCell>
        <mxCell id="w33IMnsK6YFaEakTSdEN-12" value="" style="shape=waypoint;sketch=0;size=6;pointerEvents=1;points=[];fillColor=none;resizable=0;rotatable=0;perimeter=centerPerimeter;snapToPoint=1;strokeWidth=1;strokeColor=#787878;" parent="1" vertex="1">
          <mxGeometry x="494" y="913.5" width="40" height="40" as="geometry" />
        </mxCell>
        <mxCell id="w33IMnsK6YFaEakTSdEN-15" value="" style="shape=waypoint;sketch=0;size=6;pointerEvents=1;points=[];fillColor=none;resizable=0;rotatable=0;perimeter=centerPerimeter;snapToPoint=1;strokeWidth=1;strokeColor=#787878;" parent="1" vertex="1">
          <mxGeometry x="907.25" y="914" width="40" height="40" as="geometry" />
        </mxCell>
        <mxCell id="w33IMnsK6YFaEakTSdEN-16" value="" style="shape=waypoint;sketch=0;size=6;pointerEvents=1;points=[];fillColor=none;resizable=0;rotatable=0;perimeter=centerPerimeter;snapToPoint=1;strokeWidth=1;strokeColor=#787878;" parent="1" vertex="1">
          <mxGeometry x="922.75" y="914.5" width="40" height="40" as="geometry" />
        </mxCell>
        <mxCell id="w33IMnsK6YFaEakTSdEN-25" value="" style="shape=cylinder3;whiteSpace=wrap;html=1;boundedLbl=1;backgroundOutline=1;size=15;fontSize=33;strokeWidth=5;" parent="1" vertex="1">
          <mxGeometry x="596.25" y="1022" width="216.5" height="91" as="geometry" />
        </mxCell>
        <mxCell id="w33IMnsK6YFaEakTSdEN-29" style="edgeStyle=orthogonalEdgeStyle;rounded=0;orthogonalLoop=1;jettySize=auto;html=1;entryX=0.5;entryY=1;entryDx=0;entryDy=0;fontSize=33;" parent="1" source="w33IMnsK6YFaEakTSdEN-26" target="-iZUTilEa2WBl7ZFIHIT-30" edge="1">
          <mxGeometry relative="1" as="geometry" />
        </mxCell>
        <mxCell id="w33IMnsK6YFaEakTSdEN-30" style="edgeStyle=orthogonalEdgeStyle;rounded=0;orthogonalLoop=1;jettySize=auto;html=1;entryX=0.5;entryY=1;entryDx=0;entryDy=0;fontSize=33;" parent="1" source="w33IMnsK6YFaEakTSdEN-26" target="B_KcGinwrzmEVHsLWksB-56" edge="1">
          <mxGeometry relative="1" as="geometry" />
        </mxCell>
        <mxCell id="w33IMnsK6YFaEakTSdEN-26" value="&lt;font style=&quot;font-size: 33px&quot;&gt;MIX dataset&lt;/font&gt;" style="text;html=1;strokeColor=none;fillColor=none;align=center;verticalAlign=middle;whiteSpace=wrap;rounded=0;dashed=1;dashPattern=1 2;" parent="1" vertex="1">
          <mxGeometry x="606.5" y="1061" width="198" height="30" as="geometry" />
        </mxCell>
        <mxCell id="w33IMnsK6YFaEakTSdEN-31" value="text" style="text;html=1;strokeColor=none;fillColor=none;align=center;verticalAlign=middle;whiteSpace=wrap;rounded=0;fontSize=33;" parent="1" vertex="1">
          <mxGeometry x="458.75" y="1022" width="60" height="30" as="geometry" />
        </mxCell>
        <mxCell id="w33IMnsK6YFaEakTSdEN-33" value="code" style="text;html=1;strokeColor=none;fillColor=none;align=center;verticalAlign=middle;whiteSpace=wrap;rounded=0;fontSize=33;" parent="1" vertex="1">
          <mxGeometry x="944.75" y="1022" width="60" height="30" as="geometry" />
        </mxCell>
        <UserObject label="&lt;font style=&quot;font-size: 28px&quot;&gt;&lt;font style=&quot;font-size: 28px&quot;&gt;func&lt;sub&gt;1&lt;/sub&gt;&lt;/font&gt;&lt;/font&gt;" placeholders="1" name="Variable" id="w33IMnsK6YFaEakTSdEN-35">
          <mxCell style="text;html=1;strokeColor=none;fillColor=none;align=center;verticalAlign=middle;whiteSpace=wrap;overflow=hidden;" parent="1" vertex="1">
            <mxGeometry x="281" y="1255.5" width="125.5" height="44" as="geometry" />
          </mxCell>
        </UserObject>
      </root>
    </mxGraphModel>
  </diagram>
</mxfile>
